HIERARCHY
ROOT Hips
{
	OFFSET 0.000000 0.000000 0.000000
	CHANNELS 6 Xposition Yposition Zposition Zrotation Yrotation Xrotation 
	JOINT LeftUpLeg_virtual
	{
		OFFSET 0.000000 0.000000 0.000000
		CHANNELS 3 Zrotation Yrotation Xrotation
		JOINT LeftUpLeg
		{
			OFFSET 10.205400 -3.823500 0.155100
			CHANNELS 3 Zrotation Yrotation Xrotation
			JOINT LeftLeg
			{
				OFFSET 0.708757 -12.982077 0.567790
				CHANNELS 3 Zrotation Yrotation Xrotation
				JOINT LeftFoot
				{
					OFFSET -0.708756 -10.717838 -2.184338
					CHANNELS 3 Zrotation Yrotation Xrotation
					JOINT LeftToeBase
					{
						OFFSET 0.108149 -7.191104 7.560241
						CHANNELS 3 Zrotation Yrotation Xrotation
						End Site
						{
							OFFSET 0.000000 0.000000 0.000000
						}
					}
				}
			}
		}
	}
	JOINT RightUpLeg_virtual
	{
		OFFSET 0.000000 0.000000 0.000000
		CHANNELS 3 Zrotation Yrotation Xrotation
		JOINT RightUpLeg
		{
			OFFSET -10.205400 -3.823500 0.005500
			CHANNELS 3 Zrotation Yrotation Xrotation
			JOINT RightLeg
			{
				OFFSET -0.708756 -12.982134 0.610632
				CHANNELS 3 Zrotation Yrotation Xrotation
				JOINT RightFoot
				{
					OFFSET 0.708754 -10.717769 -1.945823
					CHANNELS 3 Zrotation Yrotation Xrotation
					JOINT RightToeBase
					{
						OFFSET -0.108140 -7.191069 7.372968
						CHANNELS 3 Zrotation Yrotation Xrotation
						End Site
						{
							OFFSET 0.000000 0.000000 0.000000
						}
					}
				}
			}
		}
	}
	JOINT Spine_virtual
	{
		OFFSET 0.000000 0.000000 0.000000
		CHANNELS 3 Zrotation Yrotation Xrotation
		JOINT Spine
		{
			OFFSET 0.000000 6.876099 0.125700
			CHANNELS 3 Zrotation Yrotation Xrotation
			JOINT Spine1
			{
				OFFSET 0.000000 8.022060 0.146608
				CHANNELS 3 Zrotation Yrotation Xrotation
				JOINT Spine2
				{
					OFFSET 0.000000 9.168068 0.167552
					CHANNELS 3 Zrotation Yrotation Xrotation
					JOINT Neck_virtual
					{
						OFFSET 0.000000 0.000000 0.000000
						CHANNELS 3 Zrotation Yrotation Xrotation
						JOINT Neck
						{
							OFFSET 0.000000 10.314075 0.188496
							CHANNELS 3 Zrotation Yrotation Xrotation
							JOINT Head
							{
								OFFSET 0.000000 7.643700 -2.377400
								CHANNELS 3 Zrotation Yrotation Xrotation
								End Site
								{
									OFFSET 0.000000 0.000000 0.000000
								}
							}
						}
					}
					JOINT LeftShoulder_virtual
					{
						OFFSET 0.000000 0.000000 0.000000
						CHANNELS 3 Zrotation Yrotation Xrotation
						JOINT LeftShoulder
						{
							OFFSET 4.392200 8.824978 0.174984
							CHANNELS 3 Zrotation Yrotation Xrotation
							JOINT LeftArm
							{
								OFFSET 8.771219 -2.981674 -0.026999
								CHANNELS 3 Zrotation Yrotation Xrotation
								JOINT LeftForeArm
								{
									OFFSET 8.512804 0.000000 -0.000000
									CHANNELS 3 Zrotation Yrotation Xrotation
									JOINT LeftHand
									{
										OFFSET 18.484802 0.000000 -0.000000
										CHANNELS 3 Zrotation Yrotation Xrotation
										End Site
										{
											OFFSET 0.000000 0.000000 0.000000
										}
									}
								}
							}
						}
					}
					JOINT RightShoulder_virtual
					{
						OFFSET 0.000000 0.000000 0.000000
						CHANNELS 3 Zrotation Yrotation Xrotation
						JOINT RightShoulder
						{
							OFFSET -4.392200 8.824993 0.141379
							CHANNELS 3 Zrotation Yrotation Xrotation
							JOINT RightArm
							{
								OFFSET -8.771282 -2.981682 -0.094208
								CHANNELS 3 Zrotation Yrotation Xrotation
								JOINT RightForeArm
								{
									OFFSET -8.494598 0.000000 0.000000
									CHANNELS 3 Zrotation Yrotation Xrotation
									JOINT RightHand
									{
										OFFSET -18.483803 0.000000 0.000001
										CHANNELS 3 Zrotation Yrotation Xrotation
										End Site
										{
											OFFSET 0.000000 0.000000 0.000000
										}
									}
								}
							}
						}
					}
				}
			}
		}
	}
}
MOTION
Frames: 10
Frame Time: 0.033333
-13.295724 36.115372 -15.694267 179.694026 -1.740283 179.492112 -0.168486 -2.094226 14.511212 -0.058028 -5.828987 -18.131210 4.416605 2.963609 15.459927 -4.376637 0.121280 6.967843 0.000000 0.000000 0.000000 4.914791 -1.586511 16.165786 -4.845028 1.802566 -16.735796 -3.967898 2.556226 19.438741 12.494735 0.295272 3.281845 0.000000 0.000000 0.000000 2.237056 0.978006 3.510616 1.808403 -1.078086 -14.073832 -0.208270 -3.212670 7.321348 0.049600 -0.069128 -0.077163 -0.534034 -0.995258 8.890272 -2.939818 3.702757 17.816067 0.000000 0.000000 0.000000 1.348738 -0.228678 5.747126 -16.456605 -5.808489 2.796724 -47.885073 12.253910 17.809300 1.542075 -38.058576 2.727620 0.000000 0.000000 0.000000 -3.071869 0.814203 5.064475 26.366429 3.762888 6.149701 49.010255 -17.501291 10.812394 -3.208417 32.655353 -2.162483 0.000000 0.000000 0.000000 
-13.298934 36.112431 -15.717366 179.584880 -1.679763 179.336657 -0.298967 -2.118943 14.420247 0.009753 -5.534300 -18.236291 4.132870 3.413892 15.355811 -4.537047 0.196023 6.954980 0.000000 0.000000 0.000000 5.060823 -1.689613 16.264286 -4.617590 1.448504 -16.528580 -3.893376 2.051029 19.600831 12.435331 0.277303 3.105759 0.000000 0.000000 0.000000 2.156659 0.972156 3.586251 1.777701 -1.006947 -13.990244 -0.273536 -3.124780 7.316373 0.027065 0.000645 -0.108173 -0.489605 -1.242845 8.834180 -2.977809 3.516082 17.805094 0.000000 0.000000 0.000000 1.454260 -0.320338 5.774168 -16.440351 -5.881277 2.737464 -47.909143 12.296039 17.738551 1.468306 -38.042678 2.791157 0.000000 0.000000 0.000000 -3.005908 0.665380 5.025745 26.340324 3.753341 6.194851 48.976005 -17.422578 10.776474 -3.117607 32.617080 -2.086128 0.000000 0.000000 0.000000 
-13.301440 36.108383 -15.744599 179.605985 -1.707691 179.370330 -0.338154 -2.172714 14.434729 0.006570 -5.531269 -18.228230 4.051424 3.343211 15.358833 -4.327787 0.465812 6.933071 0.000000 0.000000 0.000000 5.074469 -1.719463 16.249614 -4.640335 1.445004 -16.542088 -3.867770 2.062481 19.656852 12.405141 0.313053 3.088901 0.000000 0.000000 0.000000 2.206892 0.787630 3.507607 1.720612 -0.978664 -13.945752 -0.243222 -3.125713 7.332107 0.059736 -0.005478 -0.112355 -0.521807 -0.993109 8.761426 -2.922094 3.711853 17.685248 0.000000 0.000000 0.000000 1.368974 -0.214790 5.731558 -16.459487 -5.834927 2.815018 -47.895619 12.203021 17.780285 1.579074 -38.064730 2.665844 0.000000 0.000000 0.000000 -3.059852 0.839892 5.037160 26.357143 3.771353 6.245066 48.913495 -17.369110 10.885498 -3.235685 32.487747 -2.251095 0.000000 0.000000 0.000000 
-13.300931 36.103924 -15.774174 179.574512 -1.741200 179.356943 -0.294179 -2.174634 14.471306 -0.057183 -5.545584 -18.225815 4.116012 3.352285 15.367927 -4.380342 0.296482 6.952379 0.000000 0.000000 0.000000 5.070310 -1.712801 16.269094 -4.666028 1.350427 -16.516929 -3.817653 2.038360 19.784705 12.362916 0.389114 2.995168 0.000000 0.000000 0.000000 2.174523 0.842756 3.473299 1.681968 -1.046266 -13.947849 -0.216070 -3.026770 7.364656 0.064823 -0.080434 -0.103159 -0.568865 -0.941424 8.828646 -3.027572 3.668604 17.794472 0.000000 0.000000 0.000000 1.374921 -0.194289 5.702712 -16.445902 -5.835719 2.807383 -47.934582 12.289038 17.634309 1.562251 -38.266251 2.663130 0.000000 0.000000 0.000000 -3.055512 0.801633 5.023458 26.333847 3.772497 6.268807 48.777683 -17.317029 10.920675 -3.161427 32.464401 -2.187076 0.000000 0.000000 0.000000 
-13.303574 36.098995 -15.804360 179.580126 -1.779543 179.369852 -0.302333 -2.149278 14.512053 -0.019348 -5.576015 -18.256556 4.124121 3.331546 15.363004 -4.271749 0.346347 6.963829 0.000000 0.000000 0.000000 5.079424 -1.669482 16.302458 -4.707240 1.292972 -16.528322 -3.773809 2.024048 19.920505 12.279171 0.458957 2.918608 0.000000 0.000000 0.000000 2.173878 0.736709 3.425903 1.632991 -0.877246 -13.958035 -0.202704 -3.087114 7.368320 0.060722 0.064415 -0.102900 -0.548859 -0.976794 8.844802 -3.043339 3.694178 17.779578 0.000000 0.000000 0.000000 1.378493 -0.273015 5.759456 -16.428949 -5.856891 2.795852 -47.965198 12.435286 17.641436 1.585757 -38.408527 2.603002 0.000000 0.000000 0.000000 -3.069061 0.667199 5.081064 26.285920 3.797894 6.218210 48.665019 -17.339316 10.984235 -3.024043 32.430722 -2.148395 0.000000 0.000000 0.000000 
-13.305004 36.096458 -15.834852 179.546030 -1.846634 179.390315 -0.269110 -2.152115 14.547427 -0.149071 -5.596096 -18.291576 4.248284 3.352272 15.370388 -4.385555 0.085888 6.996935 0.000000 0.000000 0.000000 5.076074 -1.657900 16.349046 -4.765984 1.272025 -16.551101 -3.721671 1.988375 20.021147 12.182565 0.542825 2.852292 0.000000 0.000000 0.000000 2.115941 0.971831 3.370010 1.576207 -0.901926 -13.983377 -0.151143 -3.146208 7.392681 0.072134 -0.020204 -0.110375 -0.460968 -1.009374 8.850840 -3.088766 3.733120 17.766985 0.000000 0.000000 0.000000 1.362122 -0.304764 5.770729 -16.482589 -5.907217 2.893722 -48.021462 12.519657 17.523475 1.664252 -38.506660 2.475573 0.000000 0.000000 0.000000 -3.030819 0.710748 5.063641 26.261664 3.676171 6.324049 48.574632 -17.271510 11.019370 -3.039518 32.400949 -2.243595 0.000000 0.000000 0.000000 
-13.309150 36.094059 -15.862777 179.616599 -1.902742 179.318653 -0.265213 -2.135329 14.602400 -0.115100 -5.642453 -18.292911 4.263227 3.273616 15.395344 -4.222047 0.160037 7.039817 0.000000 0.000000 0.000000 5.109322 -1.698824 16.428832 -4.804242 1.239810 -16.539750 -3.684818 1.977790 20.093827 12.086761 0.629770 2.834362 0.000000 0.000000 0.000000 2.218770 0.953433 3.452236 1.546238 -1.015835 -13.953488 -0.166283 -3.127821 7.243759 0.021973 -0.036508 -0.057371 -0.401866 -1.025752 8.860893 -3.101031 3.764221 17.772217 0.000000 0.000000 0.000000 1.467497 -0.274520 5.777658 -16.465337 -5.723112 2.767859 -48.099159 12.684413 17.341463 1.494825 -38.640699 2.575342 0.000000 0.000000 0.000000 -2.958117 0.871833 5.172437 26.218508 3.663949 6.334335 48.480153 -17.245712 10.941177 -2.926696 32.379680 -2.230056 0.000000 0.000000 0.000000 
-13.304220 36.091927 -15.886362 179.604496 -1.945919 179.380930 -0.333841 -2.180537 14.591466 -0.048072 -5.826566 -18.320106 4.237767 3.091569 15.399046 -3.994538 0.450207 7.053574 0.000000 0.000000 0.000000 5.110556 -1.737038 16.437769 -4.848529 1.263484 -16.591370 -3.652298 1.922932 20.147094 12.018074 0.732767 2.838001 0.000000 0.000000 0.000000 2.197446 0.842954 3.271443 1.456565 -0.879077 -13.970039 -0.124131 -3.165495 7.404613 0.077292 -0.052037 -0.085170 -0.407350 -0.981844 8.899991 -3.234950 3.723828 17.883489 0.000000 0.000000 0.000000 1.510416 -0.195864 5.785222 -16.527098 -5.846276 2.808584 -48.122733 12.694864 17.252476 1.443588 -38.675516 2.584573 0.000000 0.000000 0.000000 -2.903703 0.833524 5.126606 26.159630 3.663502 6.287767 48.382553 -17.184117 10.903542 -2.879266 32.235788 -2.283809 0.000000 0.000000 0.000000 
-13.292697 36.089096 -15.900330 179.557272 -1.998746 179.333898 -0.349054 -2.250546 14.582479 -0.141190 -5.879335 -18.279710 4.446496 3.057754 15.467180 -4.063195 0.241127 7.066132 0.000000 0.000000 0.000000 5.060684 -1.841916 16.455927 -4.871981 1.260195 -16.607617 -3.636809 1.833566 20.222522 12.005427 0.866724 2.845433 0.000000 0.000000 0.000000 2.134151 0.856705 3.336374 1.401601 -0.780599 -13.978316 -0.037893 -3.154647 7.314458 0.054231 -0.026465 -0.054891 -0.341121 -1.016153 8.859105 -3.382585 3.632497 17.840386 0.000000 0.000000 0.000000 1.565808 -0.273738 5.882632 -16.569359 -5.944977 2.796581 -48.123976 12.766881 17.285045 1.438392 -38.738777 2.475707 0.000000 0.000000 0.000000 -2.810435 0.809364 5.145073 26.074088 3.568517 6.340093 48.311711 -17.086258 10.684958 -2.808356 32.112872 -2.340666 0.000000 0.000000 0.000000 
-13.285870 36.081543 -15.904691 179.595617 -2.050260 179.398812 -0.266521 -2.362298 14.507199 -0.251576 -5.880696 -18.276797 4.662999 3.061810 15.532163 -4.166168 0.069929 7.087701 0.000000 0.000000 0.000000 5.059723 -1.944880 16.392895 -4.853814 1.268805 -16.661934 -3.660014 1.762816 20.264789 12.014682 0.989656 2.895400 0.000000 0.000000 0.000000 2.190238 0.636657 3.057432 1.383195 -0.844007 -13.781496 -0.009098 -3.029806 7.364579 0.064393 0.109019 -0.073232 -0.355408 -0.968037 8.880457 -3.462141 3.531204 17.939577 0.000000 0.000000 0.000000 1.615682 -0.211042 5.819315 -16.603029 -5.939353 2.834282 -48.155781 12.796042 17.243794 1.435526 -38.935347 2.360848 0.000000 0.000000 0.000000 -2.752159 0.824169 5.108500 26.026335 3.570446 6.316220 48.161330 -17.056468 10.674032 -2.707577 32.011888 -2.349006 0.000000 0.000000 0.000000 
